<svg width="32" height="32" viewBox="0 0 32 32" fill="none" xmlns="http://www.w3.org/2000/svg">
<path d="M18.5288 2.40385C18.5288 1.07422 17.4546 0 16.125 0C14.7954 0 13.7212 1.07422 13.7212 2.40385V13.2212H2.90385C1.57422 13.2212 0.5 14.2954 0.5 15.625C0.5 16.9546 1.57422 18.0288 2.90385 18.0288H13.7212V28.8462C13.7212 30.1758 14.7954 31.25 16.125 31.25C17.4546 31.25 18.5288 30.1758 18.5288 28.8462V18.0288H29.3462C30.6758 18.0288 31.75 16.9546 31.75 15.625C31.75 14.2954 30.6758 13.2212 29.3462 13.2212H18.5288V2.40385Z" fill="white"/>
</svg>

