<svg width="150" height="134" viewBox="0 0 150 134" fill="none" xmlns="http://www.w3.org/2000/svg">
<path d="M83.3662 25.006C83.3662 27.2166 82.4881 29.3368 80.9249 30.8999C79.3617 32.4631 77.2416 33.3413 75.0309 33.3413C72.8203 33.3413 70.7001 32.4631 69.137 30.8999C67.5738 29.3368 66.6956 27.2166 66.6956 25.006C66.6956 22.7953 67.5738 20.6752 69.137 19.112C70.7001 17.5488 72.8203 16.6706 75.0309 16.6706C77.2416 16.6706 79.3617 17.5488 80.9249 19.112C82.4881 20.6752 83.3662 22.7953 83.3662 25.006ZM88.8624 45.8443C95.6087 41.364 100.037 33.706 100.037 25.006C100.037 11.2006 88.8363 0 75.0309 0C61.2255 0 50.025 11.2006 50.025 25.006C50.025 33.706 54.4531 41.364 61.1995 45.8443H58.3603C53.7498 45.8443 50.025 49.5691 50.025 54.1796C50.025 58.7901 53.7498 62.5149 58.3603 62.5149H66.6956V116.695H54.1926C40.3872 116.695 29.1867 105.494 29.1867 91.6885V90.0996L31.01 91.923C33.4585 94.3715 37.4178 94.3715 39.8402 91.923C42.2627 89.4745 42.2887 85.5152 39.8402 83.0927L25.2795 68.5059C22.831 66.0574 18.8717 66.0574 16.4492 68.5059L1.83638 83.0927C-0.612125 85.5412 -0.612125 89.5005 1.83638 91.923C4.28488 94.3454 8.24415 94.3715 10.6666 91.923L12.49 90.0996V91.6885C12.49 114.715 31.1402 133.365 54.1666 133.365H75.0049H95.8432C118.87 133.365 137.52 114.715 137.52 91.6885V90.0996L139.343 91.923C141.792 94.3715 145.751 94.3715 148.173 91.923C150.596 89.4745 150.622 85.5152 148.173 83.0927L133.587 68.5059C131.138 66.0574 127.179 66.0574 124.756 68.5059L110.17 83.0927C107.721 85.5412 107.721 89.5005 110.17 91.923C112.618 94.3454 116.577 94.3715 119 91.923L120.823 90.0996V91.6885C120.823 105.494 109.623 116.695 95.8171 116.695H83.3662V62.5149H91.7016C96.312 62.5149 100.037 58.7901 100.037 54.1796C100.037 49.5691 96.312 45.8443 91.7016 45.8443H88.8624Z" fill="white"/>
</svg>

