<svg width="1920" height="94" viewBox="0 0 1920 94" fill="none" xmlns="http://www.w3.org/2000/svg">
<path d="M1920 49.9902L1906.67 56.6889C1893.33 62.9877 1866.67 76.985 1840 76.685C1813.33 76.985 1786.67 62.9877 1760 53.2896C1733.33 42.9916 1706.67 36.9928 1680 38.2925C1653.33 39.9922 1626.67 49.9902 1600 51.6899C1573.33 52.9897 1546.67 46.9908 1520 43.2916C1493.33 39.9922 1466.67 39.9922 1440 36.6928C1413.33 32.9936 1386.67 26.9947 1360 24.9951C1333.33 22.9955 1306.67 26.9947 1280 33.2935C1253.33 39.9922 1226.67 49.9902 1200 46.6909C1173.33 42.9916 1146.67 26.9947 1120 19.9961C1093.33 12.9975 1066.67 16.9967 1040 16.6967C1013.33 16.9967 986.667 12.9975 960 14.9971C933.333 16.9967 906.667 22.9955 880 28.2945C853.333 32.9936 826.667 36.9928 800 36.6928C773.333 36.9928 746.667 32.9936 720 38.2925C693.333 42.9916 666.667 56.9889 640 63.2877C613.333 69.9863 586.667 69.9863 560 64.9873C533.333 59.9883 506.667 49.9902 480 46.6909C453.333 42.9916 426.667 46.9908 400 51.6899C373.333 56.9889 346.667 62.9877 320 61.688C293.333 59.9883 266.667 49.9902 240 46.6909C213.333 42.9916 186.667 46.9908 160 56.6889C133.333 66.9869 106.667 82.9838 80 89.9824C53.3333 96.9811 26.6666 92.9819 13.3333 91.6821L0 89.9824V0L13.3333 0C26.6666 0 53.3333 0 80 0C106.667 0 133.333 0 160 0C186.667 0 213.333 0 240 0C266.667 0 293.333 0 320 0C346.667 0 373.333 0 400 0C426.667 0 453.333 0 480 0C506.667 0 533.333 0 560 0C586.667 0 613.333 0 640 0C666.667 0 693.333 0 720 0C746.667 0 773.333 0 800 0C826.667 0 853.333 0 880 0C906.667 0 933.333 0 960 0C986.667 0 1013.33 0 1040 0C1066.67 0 1093.33 0 1120 0C1146.67 0 1173.33 0 1200 0C1226.67 0 1253.33 0 1280 0C1306.67 0 1333.33 0 1360 0C1386.67 0 1413.33 0 1440 0C1466.67 0 1493.33 0 1520 0C1546.67 0 1573.33 0 1600 0C1626.67 0 1653.33 0 1680 0C1706.67 0 1733.33 0 1760 0C1786.67 0 1813.33 0 1840 0C1866.67 0 1893.33 0 1906.67 0H1920V49.9902Z" fill="#7862D2" fill-opacity="0.37"/>
</svg>

