<svg width="1920" height="441" viewBox="0 0 1920 441" fill="none" xmlns="http://www.w3.org/2000/svg">
<g filter="url(#filter0_d_2001_86)">
<path d="M0 161.738H13.3333C26.6667 161.738 53.3333 161.738 80 166.006C106.667 170.274 133.333 178.81 160 178.81C186.667 178.81 213.333 170.274 240 161.738C266.667 153.201 293.333 144.665 320 140.397C346.667 136.129 373.333 136.129 400 136.129C426.667 136.129 453.333 136.129 480 136.129C506.667 136.129 533.333 136.129 560 131.861C586.667 127.593 613.333 119.056 640 144.665C666.667 170.274 693.333 230.028 720 234.296C746.667 238.564 773.333 187.347 800 170.274C826.667 153.201 853.333 170.274 880 183.079C906.667 195.883 933.333 204.419 960 217.224C986.667 230.028 1013.33 247.101 1040 259.905C1066.67 272.71 1093.33 281.246 1120 251.369C1146.67 221.492 1173.33 153.201 1200 148.933C1226.67 144.665 1253.33 204.419 1280 217.224C1306.67 230.028 1333.33 195.883 1360 178.81C1386.67 161.738 1413.33 161.738 1440 174.542C1466.67 187.347 1493.33 212.956 1520 225.76C1546.67 238.564 1573.33 238.564 1600 238.564C1626.67 238.564 1653.33 238.564 1680 221.492C1706.67 204.419 1733.33 170.274 1760 183.079C1786.67 195.883 1813.33 255.637 1840 268.441C1866.67 281.246 1893.33 247.101 1906.67 230.028L1920 212.956V341H1906.67C1893.33 341 1866.67 341 1840 341C1813.33 341 1786.67 341 1760 341C1733.33 341 1706.67 341 1680 341C1653.33 341 1626.67 341 1600 341C1573.33 341 1546.67 341 1520 341C1493.33 341 1466.67 341 1440 341C1413.33 341 1386.67 341 1360 341C1333.33 341 1306.67 341 1280 341C1253.33 341 1226.67 341 1200 341C1173.33 341 1146.67 341 1120 341C1093.33 341 1066.67 341 1040 341C1013.33 341 986.667 341 960 341C933.333 341 906.667 341 880 341C853.333 341 826.667 341 800 341C773.333 341 746.667 341 720 341C693.333 341 666.667 341 640 341C613.333 341 586.667 341 560 341C533.333 341 506.667 341 480 341C453.333 341 426.667 341 400 341C373.333 341 346.667 341 320 341C293.333 341 266.667 341 240 341C213.333 341 186.667 341 160 341C133.333 341 106.667 341 80 341C53.3333 341 26.6667 341 13.3333 341H0V161.738Z" fill="#1E1C71"/>
</g>
<g filter="url(#filter1_d_2001_86)">
<path d="M0 338.099L13.3333 309.197C26.6667 280.296 53.3333 222.493 80 179.14C106.667 135.788 133.333 106.887 160 135.788C186.667 164.69 213.333 251.394 240 265.845C266.667 280.296 293.333 222.493 320 212.859C346.667 203.225 373.333 241.76 400 227.309C426.667 212.859 453.333 145.422 480 116.52C506.667 87.619 533.333 97.2528 560 140.605C586.667 183.957 613.333 261.028 640 299.563C666.667 338.099 693.333 338.099 720 328.465C746.667 318.831 773.333 299.563 800 294.746C826.667 289.929 853.333 299.563 880 285.112C906.667 270.662 933.333 232.126 960 212.859C986.667 193.591 1013.33 193.591 1040 198.408C1066.67 203.225 1093.33 212.859 1120 208.042C1146.67 203.225 1173.33 183.957 1200 193.591C1226.67 203.225 1253.33 241.76 1280 261.028C1306.67 280.296 1333.33 280.296 1360 251.394C1386.67 222.493 1413.33 164.69 1440 135.788C1466.67 106.887 1493.33 106.887 1520 111.704C1546.67 116.52 1573.33 126.154 1600 155.056C1626.67 183.957 1653.33 232.126 1680 251.394C1706.67 270.662 1733.33 261.028 1760 232.126C1786.67 203.225 1813.33 155.056 1840 164.69C1866.67 174.323 1893.33 241.76 1906.67 275.479L1920 309.197V367H1906.67C1893.33 367 1866.67 367 1840 367C1813.33 367 1786.67 367 1760 367C1733.33 367 1706.67 367 1680 367C1653.33 367 1626.67 367 1600 367C1573.33 367 1546.67 367 1520 367C1493.33 367 1466.67 367 1440 367C1413.33 367 1386.67 367 1360 367C1333.33 367 1306.67 367 1280 367C1253.33 367 1226.67 367 1200 367C1173.33 367 1146.67 367 1120 367C1093.33 367 1066.67 367 1040 367C1013.33 367 986.667 367 960 367C933.333 367 906.667 367 880 367C853.333 367 826.667 367 800 367C773.333 367 746.667 367 720 367C693.333 367 666.667 367 640 367C613.333 367 586.667 367 560 367C533.333 367 506.667 367 480 367C453.333 367 426.667 367 400 367C373.333 367 346.667 367 320 367C293.333 367 266.667 367 240 367C213.333 367 186.667 367 160 367C133.333 367 106.667 367 80 367C53.3333 367 26.6667 367 13.3333 367H0V338.099Z" fill="#282686"/>
</g>
<g filter="url(#filter2_d_2001_86)">
<path d="M0 370.585L13.3333 355.915C26.6667 341.245 53.3333 311.905 80 300.169C106.667 288.433 133.333 294.301 160 291.367C186.667 288.433 213.333 276.697 240 273.763C266.667 270.829 293.333 276.697 320 285.499C346.667 294.301 373.333 306.037 400 323.641C426.667 341.245 453.333 364.717 480 379.386C506.667 394.056 533.333 399.924 560 396.99C586.667 394.056 613.333 382.32 640 376.452C666.667 370.585 693.333 370.585 720 367.651C746.667 364.717 773.333 358.849 800 358.849C826.667 358.849 853.333 364.717 880 350.047C906.667 335.377 933.333 300.169 960 288.433C986.667 276.697 1013.33 288.433 1040 288.433C1066.67 288.433 1093.33 276.697 1120 279.631C1146.67 282.565 1173.33 300.169 1200 306.037C1226.67 311.905 1253.33 306.037 1280 314.839C1306.67 323.641 1333.33 347.113 1360 367.651C1386.67 388.188 1413.33 405.792 1440 405.792C1466.67 405.792 1493.33 388.188 1520 367.651C1546.67 347.113 1573.33 323.641 1600 308.971C1626.67 294.301 1653.33 288.433 1680 303.103C1706.67 317.773 1733.33 352.981 1760 358.849C1786.67 364.717 1813.33 341.245 1840 335.377C1866.67 329.509 1893.33 341.245 1906.67 347.113L1920 352.981V441H1906.67C1893.33 441 1866.67 441 1840 441C1813.33 441 1786.67 441 1760 441C1733.33 441 1706.67 441 1680 441C1653.33 441 1626.67 441 1600 441C1573.33 441 1546.67 441 1520 441C1493.33 441 1466.67 441 1440 441C1413.33 441 1386.67 441 1360 441C1333.33 441 1306.67 441 1280 441C1253.33 441 1226.67 441 1200 441C1173.33 441 1146.67 441 1120 441C1093.33 441 1066.67 441 1040 441C1013.33 441 986.667 441 960 441C933.333 441 906.667 441 880 441C853.333 441 826.667 441 800 441C773.333 441 746.667 441 720 441C693.333 441 666.667 441 640 441C613.333 441 586.667 441 560 441C533.333 441 506.667 441 480 441C453.333 441 426.667 441 400 441C373.333 441 346.667 441 320 441C293.333 441 266.667 441 240 441C213.333 441 186.667 441 160 441C133.333 441 106.667 441 80 441C53.3333 441 26.6667 441 13.3333 441H0V370.585Z" fill="#3B39A7"/>
</g>
<defs>
<filter id="filter0_d_2001_86" x="-50" y="27" width="2020" height="314" filterUnits="userSpaceOnUse" color-interpolation-filters="sRGB">
<feFlood flood-opacity="0" result="BackgroundImageFix"/>
<feColorMatrix in="SourceAlpha" type="matrix" values="0 0 0 0 0 0 0 0 0 0 0 0 0 0 0 0 0 0 127 0" result="hardAlpha"/>
<feOffset dy="-50"/>
<feGaussianBlur stdDeviation="25"/>
<feComposite in2="hardAlpha" operator="out"/>
<feColorMatrix type="matrix" values="0 0 0 0 0 0 0 0 0 0 0 0 0 0 0 0 0 0 0.25 0"/>
<feBlend mode="normal" in2="BackgroundImageFix" result="effect1_dropShadow_2001_86"/>
<feBlend mode="normal" in="SourceGraphic" in2="effect1_dropShadow_2001_86" result="shape"/>
</filter>
<filter id="filter1_d_2001_86" x="-50" y="0" width="2020" height="367" filterUnits="userSpaceOnUse" color-interpolation-filters="sRGB">
<feFlood flood-opacity="0" result="BackgroundImageFix"/>
<feColorMatrix in="SourceAlpha" type="matrix" values="0 0 0 0 0 0 0 0 0 0 0 0 0 0 0 0 0 0 127 0" result="hardAlpha"/>
<feOffset dy="-50"/>
<feGaussianBlur stdDeviation="25"/>
<feComposite in2="hardAlpha" operator="out"/>
<feColorMatrix type="matrix" values="0 0 0 0 0 0 0 0 0 0 0 0 0 0 0 0 0 0 0.25 0"/>
<feBlend mode="normal" in2="BackgroundImageFix" result="effect1_dropShadow_2001_86"/>
<feBlend mode="normal" in="SourceGraphic" in2="effect1_dropShadow_2001_86" result="shape"/>
</filter>
<filter id="filter2_d_2001_86" x="-50" y="173" width="2020" height="268" filterUnits="userSpaceOnUse" color-interpolation-filters="sRGB">
<feFlood flood-opacity="0" result="BackgroundImageFix"/>
<feColorMatrix in="SourceAlpha" type="matrix" values="0 0 0 0 0 0 0 0 0 0 0 0 0 0 0 0 0 0 127 0" result="hardAlpha"/>
<feOffset dy="-50"/>
<feGaussianBlur stdDeviation="25"/>
<feComposite in2="hardAlpha" operator="out"/>
<feColorMatrix type="matrix" values="0 0 0 0 0 0 0 0 0 0 0 0 0 0 0 0 0 0 0.25 0"/>
<feBlend mode="normal" in2="BackgroundImageFix" result="effect1_dropShadow_2001_86"/>
<feBlend mode="normal" in="SourceGraphic" in2="effect1_dropShadow_2001_86" result="shape"/>
</filter>
</defs>
</svg>

