<svg width="101" height="88" viewBox="0 0 101 88" fill="none" xmlns="http://www.w3.org/2000/svg">
<path d="M88 9.375C89.7188 9.375 91.125 10.7812 91.125 12.5V74.9609L90.1484 73.6914L63.5859 39.3164C62.707 38.1641 61.3203 37.5 59.875 37.5C58.4297 37.5 57.0625 38.1641 56.1641 39.3164L39.9531 60.293L33.9961 51.9531C33.1172 50.7227 31.7109 50 30.1875 50C28.6641 50 27.2578 50.7227 26.3789 51.9727L10.7539 73.8477L9.875 75.0586V75V12.5C9.875 10.7812 11.2812 9.375 13 9.375H88ZM13 0C6.10547 0 0.5 5.60547 0.5 12.5V75C0.5 81.8945 6.10547 87.5 13 87.5H88C94.8945 87.5 100.5 81.8945 100.5 75V12.5C100.5 5.60547 94.8945 0 88 0H13ZM28.625 37.5C29.8561 37.5 31.0752 37.2575 32.2127 36.7864C33.3501 36.3152 34.3836 35.6247 35.2541 34.7541C36.1247 33.8836 36.8152 32.8501 37.2864 31.7127C37.7575 30.5752 38 29.3561 38 28.125C38 26.8939 37.7575 25.6748 37.2864 24.5373C36.8152 23.3999 36.1247 22.3664 35.2541 21.4959C34.3836 20.6253 33.3501 19.9348 32.2127 19.4636C31.0752 18.9925 29.8561 18.75 28.625 18.75C27.3939 18.75 26.1748 18.9925 25.0373 19.4636C23.8999 19.9348 22.8664 20.6253 21.9959 21.4959C21.1253 22.3664 20.4348 23.3999 19.9636 24.5373C19.4925 25.6748 19.25 26.8939 19.25 28.125C19.25 29.3561 19.4925 30.5752 19.9636 31.7127C20.4348 32.8501 21.1253 33.8836 21.9959 34.7541C22.8664 35.6247 23.8999 36.3152 25.0373 36.7864C26.1748 37.2575 27.3939 37.5 28.625 37.5Z" fill="#182641"/>
<path d="M88 9.375C89.7188 9.375 91.125 10.7812 91.125 12.5V74.9609L90.1484 73.6914L63.5859 39.3164C62.707 38.1641 61.3203 37.5 59.875 37.5C58.4297 37.5 57.0625 38.1641 56.1641 39.3164L39.9531 60.293L33.9961 51.9531C33.1172 50.7227 31.7109 50 30.1875 50C28.6641 50 27.2578 50.7227 26.3789 51.9727L10.7539 73.8477L9.875 75.0586V75V12.5C9.875 10.7812 11.2812 9.375 13 9.375H88ZM13 0C6.10547 0 0.5 5.60547 0.5 12.5V75C0.5 81.8945 6.10547 87.5 13 87.5H88C94.8945 87.5 100.5 81.8945 100.5 75V12.5C100.5 5.60547 94.8945 0 88 0H13ZM28.625 37.5C29.8561 37.5 31.0752 37.2575 32.2127 36.7864C33.3501 36.3152 34.3836 35.6247 35.2541 34.7541C36.1247 33.8836 36.8152 32.8501 37.2864 31.7127C37.7575 30.5752 38 29.3561 38 28.125C38 26.8939 37.7575 25.6748 37.2864 24.5373C36.8152 23.3999 36.1247 22.3664 35.2541 21.4959C34.3836 20.6253 33.3501 19.9348 32.2127 19.4636C31.0752 18.9925 29.8561 18.75 28.625 18.75C27.3939 18.75 26.1748 18.9925 25.0373 19.4636C23.8999 19.9348 22.8664 20.6253 21.9959 21.4959C21.1253 22.3664 20.4348 23.3999 19.9636 24.5373C19.4925 25.6748 19.25 26.8939 19.25 28.125C19.25 29.3561 19.4925 30.5752 19.9636 31.7127C20.4348 32.8501 21.1253 33.8836 21.9959 34.7541C22.8664 35.6247 23.8999 36.3152 25.0373 36.7864C26.1748 37.2575 27.3939 37.5 28.625 37.5Z" fill="#182641"/>
</svg>

