<svg width="36" height="30" viewBox="0 0 36 30" fill="none" xmlns="http://www.w3.org/2000/svg">
<path d="M16.2545 29.1836L16.0829 29.0258L4.06314 17.8636C1.95693 15.9083 0.763184 13.164 0.763184 10.2894V10.063C0.763184 5.23316 4.19349 1.08935 8.94104 0.18375C11.6441 -0.337657 14.409 0.286659 16.6112 1.83716C17.2287 2.27624 17.805 2.78392 18.3264 3.36708C18.6145 3.03777 18.9232 2.7359 19.2526 2.45461C19.5064 2.23507 19.7671 2.02926 20.0415 1.83716C22.2438 0.286659 25.0086 -0.337657 27.7117 0.17689C32.4592 1.08249 35.8895 5.23316 35.8895 10.063V10.2894C35.8895 13.164 34.6958 15.9083 32.5896 17.8636L20.5698 29.0258L20.3983 29.1836C19.8357 29.705 19.0948 30 18.3264 30C17.558 30 16.817 29.7119 16.2545 29.1836ZM17.1669 7.01007C17.1395 6.98948 17.1189 6.96204 17.0983 6.9346L15.8771 5.56248L15.8703 5.55561C14.2855 3.77871 11.8911 2.96916 9.5585 3.4151C6.36145 4.0257 4.05628 6.81111 4.05628 10.063V10.2894C4.05628 12.2447 4.87269 14.1177 6.30656 15.4486L18.3264 26.6109L30.3462 15.4486C31.78 14.1177 32.5965 12.2447 32.5965 10.2894V10.063C32.5965 6.81797 30.2913 4.0257 27.1011 3.4151C24.7685 2.96916 22.3673 3.78558 20.7893 5.55561C20.7893 5.55561 20.7893 5.55561 20.7825 5.56248C20.7756 5.56934 20.7825 5.56248 20.7756 5.56934L19.5544 6.94146C19.5338 6.9689 19.5064 6.98948 19.4858 7.01693C19.1771 7.32565 18.7586 7.49717 18.3264 7.49717C17.8941 7.49717 17.4757 7.32565 17.1669 7.01693V7.01007Z" fill="white"/>
</svg>

