<svg width="1274" height="94" viewBox="0 0 1274 94" fill="none" xmlns="http://www.w3.org/2000/svg">
<path d="M0 34.0001L8.84722 39.0001C17.6944 44.0001 35.3889 54.0001 53.0833 47.3001C70.7778 41.0001 88.4722 17.0001 106.167 7.3001C123.861 -2.9999 141.556 1.0001 159.25 4.0001C176.944 7.0001 194.639 11.0001 212.333 17.3001C230.028 24.0001 247.722 34.0001 265.417 30.7001C283.111 27.0001 300.806 11.0001 318.5 9.0001C336.194 7.0001 353.889 21.0001 371.583 22.3001C389.278 24.0001 406.972 14.0001 424.667 15.7001C442.361 17.0001 460.056 31.0001 477.75 32.3001C495.444 34.0001 513.139 24.0001 530.833 22.3001C548.528 21.0001 566.222 27.0001 583.917 27.3001C601.611 27.0001 619.306 21.0001 637 22.3001C654.694 24.0001 672.389 34.0001 690.083 40.7001C707.778 47.0001 725.472 51.0001 743.167 47.3001C760.861 44.0001 778.556 34.0001 796.25 34.0001C813.944 34.0001 831.639 44.0001 849.333 40.7001C867.028 37.0001 884.722 21.0001 902.417 14.0001C920.111 7.0001 937.806 11.0001 955.5 19.0001C973.194 27.0001 990.889 41.0001 1008.58 44.0001C1026.28 47.0001 1043.97 41.0001 1061.67 34.0001C1079.36 27.0001 1097.06 21.0001 1114.75 17.3001C1132.44 14.0001 1150.14 14.0001 1167.83 22.3001C1185.53 31.0001 1203.22 47.0001 1220.92 52.3001C1238.61 57.0001 1256.31 51.0001 1265.15 47.3001L1274 44.0001V94.0001H1265.15C1256.31 94.0001 1238.61 94.0001 1220.92 94.0001C1203.22 94.0001 1185.53 94.0001 1167.83 94.0001C1150.14 94.0001 1132.44 94.0001 1114.75 94.0001C1097.06 94.0001 1079.36 94.0001 1061.67 94.0001C1043.97 94.0001 1026.28 94.0001 1008.58 94.0001C990.889 94.0001 973.194 94.0001 955.5 94.0001C937.806 94.0001 920.111 94.0001 902.417 94.0001C884.722 94.0001 867.028 94.0001 849.333 94.0001C831.639 94.0001 813.944 94.0001 796.25 94.0001C778.556 94.0001 760.861 94.0001 743.167 94.0001C725.472 94.0001 707.778 94.0001 690.083 94.0001C672.389 94.0001 654.694 94.0001 637 94.0001C619.306 94.0001 601.611 94.0001 583.917 94.0001C566.222 94.0001 548.528 94.0001 530.833 94.0001C513.139 94.0001 495.444 94.0001 477.75 94.0001C460.056 94.0001 442.361 94.0001 424.667 94.0001C406.972 94.0001 389.278 94.0001 371.583 94.0001C353.889 94.0001 336.194 94.0001 318.5 94.0001C300.806 94.0001 283.111 94.0001 265.417 94.0001C247.722 94.0001 230.028 94.0001 212.333 94.0001C194.639 94.0001 176.944 94.0001 159.25 94.0001C141.556 94.0001 123.861 94.0001 106.167 94.0001C88.4722 94.0001 70.7778 94.0001 53.0833 94.0001C35.3889 94.0001 17.6944 94.0001 8.84722 94.0001H0V34.0001Z" fill="#D3D5DA"/>
</svg>

