<svg width="40" height="32" viewBox="0 0 40 32" fill="none" xmlns="http://www.w3.org/2000/svg">
<path d="M0.541667 13.0903C-0.368056 11.8542 -0.104167 10.1181 1.13194 9.20836L9.92361 2.72919C11.5417 1.53475 13.5069 0.888916 15.5208 0.888916H26.6667H37.7778C39.0069 0.888916 40 1.88197 40 3.11114V7.55558C40 8.78475 39.0069 9.7778 37.7778 9.7778H35.2222L32.1042 12.2778C30.5278 13.5417 28.5694 14.2222 26.5486 14.2222H21.1111H20H15.5556C14.3264 14.2222 13.3333 13.2292 13.3333 12C13.3333 10.7709 14.3264 9.7778 15.5556 9.7778H20H21.1111C21.7222 9.7778 22.2222 9.2778 22.2222 8.66669C22.2222 8.05558 21.7222 7.55558 21.1111 7.55558H12.7361L4.42361 13.6806C3.1875 14.5903 1.45139 14.3264 0.541667 13.0903ZM26.5556 9.7778H26.6181C26.5972 9.7778 26.5764 9.7778 26.5556 9.7778ZM39.4583 19.7986C40.3681 21.0347 40.1042 22.7709 38.8681 23.6806L30.0764 30.1597C28.4514 31.3542 26.4931 32 24.4722 32H13.3333H2.22222C0.993056 32 0 31.007 0 29.7778V25.3334C0 24.1042 0.993056 23.1111 2.22222 23.1111H4.77778L7.89583 20.6111C9.47222 19.3472 11.4306 18.6667 13.4514 18.6667H18.8889H20H24.4444C25.6736 18.6667 26.6667 19.6597 26.6667 20.8889C26.6667 22.1181 25.6736 23.1111 24.4444 23.1111H20H18.8889C18.2778 23.1111 17.7778 23.6111 17.7778 24.2222C17.7778 24.8334 18.2778 25.3334 18.8889 25.3334H27.2639L35.5764 19.2084C36.8125 18.2986 38.5486 18.5625 39.4583 19.7986ZM13.4444 23.1111H13.3819C13.4028 23.1111 13.4236 23.1111 13.4444 23.1111Z" fill="white"/>
</svg>

