<svg width="40" height="37" viewBox="0 0 40 37" fill="none" xmlns="http://www.w3.org/2000/svg">
<path d="M39.9895 18.6642C39.9895 19.9143 38.9478 20.8935 37.7671 20.8935H35.5447L35.5933 32.0195C35.5933 32.207 35.5794 32.3945 35.5586 32.582V33.7002C35.5586 35.235 34.3154 36.4782 32.7806 36.4782H31.6694C31.593 36.4782 31.5166 36.4782 31.4402 36.4713C31.3429 36.4782 31.2457 36.4782 31.1485 36.4782H28.8913H27.2245C25.6897 36.4782 24.4465 35.235 24.4465 33.7002V32.0334V27.5886C24.4465 26.3593 23.4534 25.3661 22.2241 25.3661H17.7793C16.55 25.3661 15.5569 26.3593 15.5569 27.5886V32.0334V33.7002C15.5569 35.235 14.3137 36.4782 12.7789 36.4782H11.1121H8.89659C8.79242 36.4782 8.68824 36.4713 8.58406 36.4643C8.50072 36.4713 8.41738 36.4782 8.33404 36.4782H7.22284C5.68798 36.4782 4.44482 35.235 4.44482 33.7002V25.9217C4.44482 25.8592 4.44482 25.7898 4.45177 25.7273V20.8935H2.22241C0.972305 20.8935 0 19.9212 0 18.6642C0 18.0391 0.208351 17.4835 0.694504 16.9974L18.5016 1.47522C18.9877 0.989067 19.5433 0.919617 20.0295 0.919617C20.5156 0.919617 21.0712 1.05852 21.4879 1.40577L39.2256 16.9974C39.7812 17.4835 40.059 18.0391 39.9895 18.6642Z" fill="white"/>
</svg>

