<svg width="50" height="52" viewBox="0 0 50 52" fill="none" xmlns="http://www.w3.org/2000/svg">
<path d="M28.3333 3.33333C28.3333 1.48958 26.8438 0 25 0C23.1562 0 21.6667 1.48958 21.6667 3.33333V26.6667C21.6667 28.5104 23.1562 30 25 30C26.8438 30 28.3333 28.5104 28.3333 26.6667V3.33333ZM13.2812 12.5625C14.6979 11.3854 14.8854 9.28125 13.7083 7.86458C12.5312 6.44792 10.4271 6.26042 9.01042 7.4375C3.51042 12.0208 0 18.9375 0 26.6667C0 40.4688 11.1979 51.6667 25 51.6667C38.8021 51.6667 50 40.4688 50 26.6667C50 18.9375 46.4792 12.0208 40.9792 7.4375C39.5625 6.26042 37.4583 6.45833 36.2812 7.86458C35.1042 9.27083 35.3021 11.3854 36.7083 12.5625C40.7604 15.9271 43.3229 21 43.3229 26.6667C43.3229 36.7917 35.1146 45 24.9896 45C14.8646 45 6.65625 36.7917 6.65625 26.6667C6.65625 21 9.22917 15.9271 13.2708 12.5625H13.2812Z" fill="#182641"/>
</svg>

