<svg width="400" height="476" viewBox="0 0 400 476" fill="none" xmlns="http://www.w3.org/2000/svg">
<circle cx="200" cy="200" r="200" fill="#A2B5F7"/>
<path d="M18.8571 286L394.857 244.571C364.857 410.571 121.429 486 18.8571 286Z" fill="#182641"/>
<path d="M110 368L65.7143 350.857L173.537 360.611C177.204 360.324 180.438 360.788 182.571 361.429L173.537 360.611C167.385 361.094 160.014 363.696 154.571 371.143C143.714 386 143.143 382.857 149.143 411.429C153.943 434.286 143.714 442.571 135.143 442.571C126.857 441.333 115.314 436.114 125.143 411.429C134.971 386.743 116.667 373.333 110 368Z" fill="#182641"/>
<path d="M144.857 394.571L100.571 377.429L208.394 387.183C212.061 386.895 215.295 387.36 217.429 388L208.394 387.183C202.242 387.666 194.871 390.267 189.429 397.714C178.571 412.571 178.857 418.857 184.857 447.429C189.657 470.286 173.714 476 165.143 476C156.857 474.762 142.743 466.114 152.571 441.429C162.4 416.743 151.524 399.905 144.857 394.571Z" fill="#182641"/>
<path d="M323.779 391.429C315.493 402.476 303.364 428.47 323.779 431.429C343.493 434.286 332.35 394 323.779 391.429Z" fill="#182641"/>
<path d="M382.286 184.571C297.943 180 102.571 213.524 17.1429 228L81.1429 269.143L336.571 237.143L382.286 184.571Z" fill="#6D3D36"/>
<g filter="url(#filter0_i_13_68)">
<path d="M206.286 23.4286L109.714 230.857L219.714 217.429L206.286 23.4286Z" fill="#E8F3FA"/>
<path d="M225.714 217.429L215.714 50.2857L323.143 205.429L225.714 217.429Z" fill="#E8F3FA"/>
</g>
<path d="M368 200.571C283.657 196 119.714 224.095 34.2858 238.571L101.714 277.429L329.714 243.853L368 200.571Z" fill="#8A5C55"/>
<path d="M354.857 228C217.486 370.857 72.4762 287.524 17.1429 228H144.286C211.333 225.714 352.8 213.829 382.286 184.571L354.857 228Z" fill="#572F2A"/>
<path d="M365.429 211.143C315.143 250.229 125.81 250.762 36.2858 246.286L44.0001 252.857L52.2858 258.857L60.5715 264.857L69.1429 270.286C240.8 287.2 333.429 244.667 359.143 221.143L362.286 216.286L365.429 211.143Z" fill="#482621"/>
<path d="M146.286 282C136.914 302.8 147.143 326.816 158 329.143C292.4 357.943 354.857 263.905 363.143 214C350.571 232 314.914 272.4 280.857 278.571C246.8 284.743 251.81 257.143 258.571 240.857C263.429 235.714 244.571 243.429 237.429 252.857C216.248 280.816 228.857 288 228.857 288C228.857 288 241.429 310.4 203.714 301.714C166 293.029 177.143 254.857 203.714 248.286C184.286 240.857 155.657 261.2 146.286 282Z" fill="#25617B"/>
<path d="M188.571 304.857C179.2 325.657 182.286 343.429 193.587 346.286C327.987 375.086 354.286 265.048 362.571 215.143C350 233.143 341.2 278.971 307.143 285.143C273.086 291.314 282.825 269.714 294.158 257.714C299.015 252.571 280.158 260.286 273.015 269.714C251.834 297.673 264.444 304.857 264.444 304.857C264.444 304.857 277.015 327.257 239.301 318.571C201.587 309.886 212.729 285.714 239.301 279.143C219.872 271.714 197.943 284.057 188.571 304.857Z" fill="#4888A3"/>
<defs>
<filter id="filter0_i_13_68" x="109.714" y="23.4286" width="213.429" height="207.429" filterUnits="userSpaceOnUse" color-interpolation-filters="sRGB">
<feFlood flood-opacity="0" result="BackgroundImageFix"/>
<feBlend mode="normal" in="SourceGraphic" in2="BackgroundImageFix" result="shape"/>
<feColorMatrix in="SourceAlpha" type="matrix" values="0 0 0 0 0 0 0 0 0 0 0 0 0 0 0 0 0 0 127 0" result="hardAlpha"/>
<feOffset dx="-8" dy="3"/>
<feComposite in2="hardAlpha" operator="arithmetic" k2="-1" k3="1"/>
<feColorMatrix type="matrix" values="0 0 0 0 0 0 0 0 0 0 0 0 0 0 0 0 0 0 0.25 0"/>
<feBlend mode="normal" in2="shape" result="effect1_innerShadow_13_68"/>
</filter>
</defs>
</svg>

