<svg width="40" height="36" viewBox="0 0 40 36" fill="none" xmlns="http://www.w3.org/2000/svg">
<path d="M7.5 5.68356C7.5 2.92575 9.74219 0.683563 12.5 0.683563H35C37.7578 0.683563 40 2.92575 40 5.68356V30.6836C40 33.4414 37.7578 35.6836 35 35.6836H6.25C2.79688 35.6836 0 32.8867 0 29.4336V8.18356C0 6.80075 1.11719 5.68356 2.5 5.68356C3.88281 5.68356 5 6.80075 5 8.18356V29.4336C5 30.1211 5.5625 30.6836 6.25 30.6836C6.9375 30.6836 7.5 30.1211 7.5 29.4336V5.68356ZM12.5 7.55856V13.8086C12.5 14.8476 13.3359 15.6836 14.375 15.6836H23.125C24.1641 15.6836 25 14.8476 25 13.8086V7.55856C25 6.5195 24.1641 5.68356 23.125 5.68356H14.375C13.3359 5.68356 12.5 6.5195 12.5 7.55856ZM28.75 6.93356C28.75 7.62106 29.3125 8.18356 30 8.18356H33.75C34.4375 8.18356 35 7.62106 35 6.93356C35 6.24606 34.4375 5.68356 33.75 5.68356H30C29.3125 5.68356 28.75 6.24606 28.75 6.93356ZM28.75 14.4336C28.75 15.1211 29.3125 15.6836 30 15.6836H33.75C34.4375 15.6836 35 15.1211 35 14.4336C35 13.7461 34.4375 13.1836 33.75 13.1836H30C29.3125 13.1836 28.75 13.7461 28.75 14.4336ZM12.5 21.9336C12.5 22.6211 13.0625 23.1836 13.75 23.1836H33.75C34.4375 23.1836 35 22.6211 35 21.9336C35 21.2461 34.4375 20.6836 33.75 20.6836H13.75C13.0625 20.6836 12.5 21.2461 12.5 21.9336ZM12.5 29.4336C12.5 30.1211 13.0625 30.6836 13.75 30.6836H33.75C34.4375 30.6836 35 30.1211 35 29.4336C35 28.7461 34.4375 28.1836 33.75 28.1836H13.75C13.0625 28.1836 12.5 28.7461 12.5 29.4336Z" fill="white"/>
</svg>

