<svg width="21" height="20" viewBox="0 0 21 20" fill="none" xmlns="http://www.w3.org/2000/svg">
<path d="M16.7508 8.1254C16.7508 9.91845 16.1687 11.5748 15.1882 12.9186L20.1338 17.8681C20.6221 18.3564 20.6221 19.1494 20.1338 19.6377C19.6455 20.126 18.8525 20.126 18.3642 19.6377L13.4186 14.6882C12.0748 15.6726 10.4185 16.2508 8.6254 16.2508C4.1369 16.2508 0.5 12.6139 0.5 8.1254C0.5 3.6369 4.1369 0 8.6254 0C13.1139 0 16.7508 3.6369 16.7508 8.1254ZM8.6254 13.7507C9.36412 13.7507 10.0956 13.6052 10.7781 13.3225C11.4606 13.0398 12.0807 12.6254 12.6031 12.1031C13.1254 11.5807 13.5398 10.9606 13.8225 10.2781C14.1052 9.59561 14.2507 8.86412 14.2507 8.1254C14.2507 7.38668 14.1052 6.65519 13.8225 5.9727C13.5398 5.29021 13.1254 4.67008 12.6031 4.14773C12.0807 3.62537 11.4606 3.21102 10.7781 2.92832C10.0956 2.64562 9.36412 2.50012 8.6254 2.50012C7.88668 2.50012 7.15519 2.64562 6.4727 2.92832C5.79021 3.21102 5.17008 3.62537 4.64773 4.14773C4.12537 4.67008 3.71102 5.29021 3.42832 5.9727C3.14562 6.65519 3.00012 7.38668 3.00012 8.1254C3.00012 8.86412 3.14562 9.59561 3.42832 10.2781C3.71102 10.9606 4.12537 11.5807 4.64773 12.1031C5.17008 12.6254 5.79021 13.0398 6.4727 13.3225C7.15519 13.6052 7.88668 13.7507 8.6254 13.7507Z" fill="#D9D9D9"/>
</svg>

