<svg width="35" height="30" viewBox="0 0 35 30" fill="none" xmlns="http://www.w3.org/2000/svg">
<path d="M21.0361 0.188841C20.2661 0.530343 19.7639 1.3004 19.7639 2.14411V6.42963H12.2642C5.75555 6.42963 0.479004 11.7062 0.479004 18.2148C0.479004 25.8015 5.93635 29.1898 7.18852 29.8728C7.35593 29.9665 7.54342 30 7.73091 30C8.46079 30 9.05005 29.404 9.05005 28.6809C9.05005 28.1787 8.76211 27.7166 8.39383 27.3751C7.76439 26.7792 6.90729 25.6073 6.90729 23.5717C6.90729 20.0228 9.78662 17.1434 13.3356 17.1434H19.7639V21.429C19.7639 22.2727 20.2594 23.0427 21.0361 23.3842C21.8129 23.7257 22.7101 23.5851 23.3396 23.0226L34.0534 13.3802C34.502 12.9717 34.7632 12.3959 34.7632 11.7865C34.7632 11.1772 34.5087 10.6013 34.0534 10.1929L23.3396 0.550432C22.7101 -0.0187393 21.8062 -0.159358 21.0361 0.188841Z" fill="white"/>
</svg>

