<svg width="46" height="30" viewBox="0 0 46 30" fill="none" xmlns="http://www.w3.org/2000/svg">
<path d="M21.74 27.4951C23.1222 27.4951 24.239 26.3784 24.239 24.9961C24.239 23.6138 23.1222 22.4971 21.74 22.4971H12.9934C11.6111 22.4971 10.4944 21.3803 10.4944 19.998V10.002H12.9934C14.0008 10.002 14.9145 9.39281 15.305 8.45568C15.6955 7.51855 15.4768 6.44865 14.7661 5.73018L9.76808 0.732136C8.7919 -0.244045 7.20658 -0.244045 6.2304 0.732136L1.23235 5.73018C0.513883 6.44865 0.303028 7.51855 0.693501 8.45568C1.08397 9.39281 1.98987 10.002 3.0051 10.002H5.50412V19.998C5.50412 24.1371 8.86219 27.4951 13.0012 27.4951H21.74ZM24.239 2.50488C22.8567 2.50488 21.74 3.62163 21.74 5.0039C21.74 6.38618 22.8567 7.50293 24.239 7.50293H32.9856C34.3678 7.50293 35.4846 8.61968 35.4846 10.002V19.998H32.9856C31.9782 19.998 31.0644 20.6072 30.674 21.5443C30.2835 22.4815 30.5022 23.5513 31.2128 24.2698L36.2109 29.2679C37.1871 30.244 38.7724 30.244 39.7486 29.2679L44.7466 24.2698C45.4651 23.5513 45.6759 22.4815 45.2855 21.5443C44.895 20.6072 43.9891 19.998 42.9739 19.998H40.4748V10.002C40.4748 5.86294 37.1168 2.50488 32.9778 2.50488H24.239Z" fill="white"/>
</svg>

