<svg width="1920" height="94" viewBox="0 0 1920 94" fill="none" xmlns="http://www.w3.org/2000/svg">
<path d="M0 14L13.3333 20.7C26.6667 27 53.3333 41 80 52.3C106.667 64 133.333 74 160 72.3C186.667 71 213.333 57 240 54C266.667 51 293.333 57 320 52.3C346.667 47 373.333 31 400 29C426.667 27 453.333 41 480 39C506.667 37 533.333 21 560 24C586.667 27 613.333 51 640 55.7C666.667 61 693.333 47 720 45.7C746.667 44 773.333 54 800 57.3C826.667 61 853.333 57 880 47.3C906.667 37 933.333 21 960 24C986.667 27 1013.33 51 1040 60.7C1066.67 71 1093.33 67 1120 67.3C1146.67 67 1173.33 71 1200 65.7C1226.67 61 1253.33 47 1280 34C1306.67 21 1333.33 6.99998 1360 14C1386.67 21 1413.33 47 1440 60.7C1466.67 74 1493.33 74 1520 62.3C1546.67 51 1573.33 27 1600 14C1626.67 0.999978 1653.33 -3.00002 1680 3.99998C1706.67 11 1733.33 27 1760 42.3C1786.67 57 1813.33 71 1840 64C1866.67 57 1893.33 31 1906.67 17.3L1920 3.99998V94H1906.67C1893.33 94 1866.67 94 1840 94C1813.33 94 1786.67 94 1760 94C1733.33 94 1706.67 94 1680 94C1653.33 94 1626.67 94 1600 94C1573.33 94 1546.67 94 1520 94C1493.33 94 1466.67 94 1440 94C1413.33 94 1386.67 94 1360 94C1333.33 94 1306.67 94 1280 94C1253.33 94 1226.67 94 1200 94C1173.33 94 1146.67 94 1120 94C1093.33 94 1066.67 94 1040 94C1013.33 94 986.667 94 960 94C933.333 94 906.667 94 880 94C853.333 94 826.667 94 800 94C773.333 94 746.667 94 720 94C693.333 94 666.667 94 640 94C613.333 94 586.667 94 560 94C533.333 94 506.667 94 480 94C453.333 94 426.667 94 400 94C373.333 94 346.667 94 320 94C293.333 94 266.667 94 240 94C213.333 94 186.667 94 160 94C133.333 94 106.667 94 80 94C53.3333 94 26.6667 94 13.3333 94H0V14Z" fill="#7862D2" fill-opacity="0.37"/>
</svg>

