<svg width="778" height="626" viewBox="0 0 778 626" fill="none" xmlns="http://www.w3.org/2000/svg">
<path d="M675.496 174.885C713.896 270.923 645.829 365.961 606.996 401.475L297.998 463L0 401.475V356.958C12.4999 371.797 48.4997 372.664 92.4994 257.418C136.499 142.172 74.1662 154.377 37.4998 174.885C41.9997 133.702 78.4995 67.8426 188.499 133.869C298.498 199.895 234.332 310.106 188.499 356.958C255.832 363.794 402.197 343.853 448.997 209.399C495.797 74.9454 379.498 71.0105 315.498 85.8497C480.497 -99.224 627.496 54.8374 675.496 174.885Z" fill="url(#paint0_linear_2001_41)"/>
<path d="M113 338C74.6 434 142.667 529 181.5 564.5L490.5 626L788.5 564.5V520C776 534.833 740 535.7 696 420.5C652 305.3 714.333 317.5 751 338C746.5 296.833 710 231 600 297C490 363 554.167 473.167 600 520C532.667 526.833 386.3 506.9 339.5 372.5C292.7 238.1 409 234.167 473 249C308 64 161 218 113 338Z" fill="url(#paint1_linear_2001_41)"/>
<defs>
<linearGradient id="paint0_linear_2001_41" x1="343.498" y1="-41.2009" x2="325.483" y2="462.999" gradientUnits="userSpaceOnUse">
<stop stop-color="#D9D9D9"/>
<stop offset="0.822391" stop-color="#4A40A1"/>
</linearGradient>
<linearGradient id="paint1_linear_2001_41" x1="445" y1="122" x2="463" y2="626" gradientUnits="userSpaceOnUse">
<stop stop-color="#D9D9D9"/>
<stop offset="0.822391" stop-color="#483D99"/>
</linearGradient>
</defs>
</svg>

