<svg width="1374" height="193" viewBox="0 0 1374 193" fill="none" xmlns="http://www.w3.org/2000/svg">
<g filter="url(#filter0_d_66_803)">
<path d="M50 115.096H58.8472C67.6944 115.096 85.3889 115.096 103.083 116.951C120.778 118.806 138.472 122.516 156.167 122.516C173.861 122.516 191.556 118.806 209.25 115.096C226.944 111.387 244.639 107.677 262.333 105.822C280.028 103.967 297.722 103.967 315.417 103.967C333.111 103.967 350.806 103.967 368.5 103.967C386.194 103.967 403.889 103.967 421.583 102.112C439.278 100.258 456.972 96.5478 474.667 107.677C492.361 118.806 510.056 144.774 527.75 146.629C545.444 148.484 563.139 126.225 580.833 118.806C598.528 111.387 616.222 118.806 633.917 124.371C651.611 129.935 669.306 133.645 687 139.209C704.694 144.774 722.389 152.193 740.083 157.758C757.778 163.322 775.472 167.032 793.167 154.048C810.861 141.064 828.556 111.387 846.25 109.532C863.944 107.677 881.639 133.645 899.333 139.209C917.028 144.774 934.722 129.935 952.417 122.516C970.111 115.096 987.806 115.096 1005.5 120.661C1023.19 126.225 1040.89 137.355 1058.58 142.919C1076.28 148.484 1093.97 148.484 1111.67 148.484C1129.36 148.484 1147.06 148.484 1164.75 141.064C1182.44 133.645 1200.14 118.806 1217.83 124.371C1235.53 129.935 1253.22 155.903 1270.92 161.468C1288.61 167.032 1306.31 152.193 1315.15 144.774L1324 137.355V193H1315.15C1306.31 193 1288.61 193 1270.92 193C1253.22 193 1235.53 193 1217.83 193C1200.14 193 1182.44 193 1164.75 193C1147.06 193 1129.36 193 1111.67 193C1093.97 193 1076.28 193 1058.58 193C1040.89 193 1023.19 193 1005.5 193C987.806 193 970.111 193 952.417 193C934.722 193 917.028 193 899.333 193C881.639 193 863.944 193 846.25 193C828.556 193 810.861 193 793.167 193C775.472 193 757.778 193 740.083 193C722.389 193 704.694 193 687 193C669.306 193 651.611 193 633.917 193C616.222 193 598.528 193 580.833 193C563.139 193 545.444 193 527.75 193C510.056 193 492.361 193 474.667 193C456.972 193 439.278 193 421.583 193C403.889 193 386.194 193 368.5 193C350.806 193 333.111 193 315.417 193C297.722 193 280.028 193 262.333 193C244.639 193 226.944 193 209.25 193C191.556 193 173.861 193 156.167 193C138.472 193 120.778 193 103.083 193C85.3889 193 67.6944 193 58.8472 193H50V115.096Z" fill="white"/>
</g>
<defs>
<filter id="filter0_d_66_803" x="0" y="0" width="1374" height="193" filterUnits="userSpaceOnUse" color-interpolation-filters="sRGB">
<feFlood flood-opacity="0" result="BackgroundImageFix"/>
<feColorMatrix in="SourceAlpha" type="matrix" values="0 0 0 0 0 0 0 0 0 0 0 0 0 0 0 0 0 0 127 0" result="hardAlpha"/>
<feOffset dy="-50"/>
<feGaussianBlur stdDeviation="25"/>
<feComposite in2="hardAlpha" operator="out"/>
<feColorMatrix type="matrix" values="0 0 0 0 0 0 0 0 0 0 0 0 0 0 0 0 0 0 0.25 0"/>
<feBlend mode="normal" in2="BackgroundImageFix" result="effect1_dropShadow_66_803"/>
<feBlend mode="normal" in="SourceGraphic" in2="effect1_dropShadow_66_803" result="shape"/>
</filter>
</defs>
</svg>

