<svg width="1920" height="441" viewBox="0 0 1920 441" fill="none" xmlns="http://www.w3.org/2000/svg">
<g filter="url(#filter0_d_2002_243)">
<path d="M0 161.738H13.3333C26.6667 161.738 53.3333 161.738 80 166.006C106.667 170.274 133.333 178.81 160 178.81C186.667 178.81 213.333 170.274 240 161.738C266.667 153.201 293.333 144.665 320 140.397C346.667 136.129 373.333 136.129 400 136.129C426.667 136.129 453.333 136.129 480 136.129C506.667 136.129 533.333 136.129 560 131.861C586.667 127.593 613.333 119.056 640 144.665C666.667 170.274 693.333 230.028 720 234.296C746.667 238.564 773.333 187.347 800 170.274C826.667 153.201 853.333 170.274 880 183.079C906.667 195.883 933.333 204.419 960 217.224C986.667 230.028 1013.33 247.101 1040 259.905C1066.67 272.71 1093.33 281.246 1120 251.369C1146.67 221.492 1173.33 153.201 1200 148.933C1226.67 144.665 1253.33 204.419 1280 217.224C1306.67 230.028 1333.33 195.883 1360 178.81C1386.67 161.738 1413.33 161.738 1440 174.542C1466.67 187.347 1493.33 212.956 1520 225.76C1546.67 238.564 1573.33 238.564 1600 238.564C1626.67 238.564 1653.33 238.564 1680 221.492C1706.67 204.419 1733.33 170.274 1760 183.079C1786.67 195.883 1813.33 255.637 1840 268.441C1866.67 281.246 1893.33 247.101 1906.67 230.028L1920 212.956V341H1906.67C1893.33 341 1866.67 341 1840 341C1813.33 341 1786.67 341 1760 341C1733.33 341 1706.67 341 1680 341C1653.33 341 1626.67 341 1600 341C1573.33 341 1546.67 341 1520 341C1493.33 341 1466.67 341 1440 341C1413.33 341 1386.67 341 1360 341C1333.33 341 1306.67 341 1280 341C1253.33 341 1226.67 341 1200 341C1173.33 341 1146.67 341 1120 341C1093.33 341 1066.67 341 1040 341C1013.33 341 986.667 341 960 341C933.333 341 906.667 341 880 341C853.333 341 826.667 341 800 341C773.333 341 746.667 341 720 341C693.333 341 666.667 341 640 341C613.333 341 586.667 341 560 341C533.333 341 506.667 341 480 341C453.333 341 426.667 341 400 341C373.333 341 346.667 341 320 341C293.333 341 266.667 341 240 341C213.333 341 186.667 341 160 341C133.333 341 106.667 341 80 341C53.3333 341 26.6667 341 13.3333 341H0V161.738Z" fill="#754929"/>
</g>
<path d="M1370.82 184C1365.75 184 1361.63 188.12 1361.63 193.184V205.429C1361.63 205.991 1361.17 206.449 1360.61 206.449H1355.51V203.388C1355.51 198.324 1351.39 194.204 1346.33 194.204C1341.26 194.204 1337.14 198.324 1337.14 203.388V236.041C1337.14 236.603 1336.69 237.061 1336.12 237.061H1323.88C1323.31 237.061 1322.86 236.603 1322.86 236.041V197.265C1322.86 192.201 1318.74 188.082 1313.67 188.082C1308.61 188.082 1304.49 192.201 1304.49 197.265V218.694H1299.39C1298.83 218.694 1298.37 218.236 1298.37 217.673V209.51C1298.37 204.446 1294.25 200.327 1289.18 200.327C1284.12 200.327 1280 204.446 1280 209.51V217.673C1280 228.364 1288.7 237.061 1299.39 237.061H1304.52C1305 246.251 1311.9 253.767 1320.82 255.187V267.177C1319.14 267.755 1317.52 268.49 1315.98 269.379C1311.87 271.755 1308.4 275.162 1305.95 279.232L1305.51 279.961V284H1354.49V279.961L1354.05 279.232C1351.6 275.162 1348.13 271.755 1344.02 269.379C1342.48 268.49 1340.86 267.755 1339.18 267.177V255.187C1348.42 253.715 1355.51 245.69 1355.51 236.041V224.817H1360.61C1371.3 224.817 1380 216.119 1380 205.429V193.184C1380 188.12 1375.88 184 1370.82 184ZM1345.22 277.878H1314.78C1318.81 273.976 1324.2 271.755 1330 271.755C1335.8 271.755 1341.19 273.976 1345.22 277.878ZM1373.88 205.429C1373.88 212.743 1367.93 218.694 1360.61 218.694H1349.39V236.041C1349.39 243.355 1343.44 249.306 1336.12 249.306H1333.06V265.803C1332.05 265.692 1331.03 265.633 1330 265.633C1328.97 265.633 1327.95 265.692 1326.94 265.803V249.306H1323.88C1316.56 249.306 1310.61 243.355 1310.61 236.041V230.939H1299.39C1292.07 230.939 1286.12 224.988 1286.12 217.673V209.51C1286.12 207.822 1287.5 206.449 1289.18 206.449C1290.87 206.449 1292.24 207.822 1292.24 209.51V217.673C1292.24 221.612 1295.45 224.816 1299.39 224.816H1310.61V197.265C1310.61 195.577 1311.99 194.204 1313.67 194.204C1315.36 194.204 1316.73 195.577 1316.73 197.265V236.041C1316.73 239.979 1319.94 243.184 1323.88 243.184H1336.12C1340.06 243.184 1343.27 239.979 1343.27 236.041V203.388C1343.27 201.7 1344.64 200.327 1346.33 200.327C1348.01 200.327 1349.39 201.7 1349.39 203.388V212.571H1360.61C1364.55 212.571 1367.76 209.367 1367.76 205.429V193.184C1367.76 191.496 1369.13 190.122 1370.82 190.122C1372.5 190.122 1373.88 191.496 1373.88 193.184V205.429Z" fill="white"/>
<g filter="url(#filter1_d_2002_243)">
<path d="M0 338.099L13.3333 309.197C26.6667 280.296 53.3333 222.493 80 179.14C106.667 135.788 133.333 106.887 160 135.788C186.667 164.69 213.333 251.394 240 265.845C266.667 280.296 293.333 222.493 320 212.859C346.667 203.225 373.333 241.76 400 227.309C426.667 212.859 453.333 145.422 480 116.52C506.667 87.619 533.333 97.2528 560 140.605C586.667 183.957 613.333 261.028 640 299.563C666.667 338.099 693.333 338.099 720 328.465C746.667 318.831 773.333 299.563 800 294.746C826.667 289.929 853.333 299.563 880 285.112C906.667 270.662 933.333 232.126 960 212.859C986.667 193.591 1013.33 193.591 1040 198.408C1066.67 203.225 1093.33 212.859 1120 208.042C1146.67 203.225 1173.33 183.957 1200 193.591C1226.67 203.225 1253.33 241.76 1280 261.028C1306.67 280.296 1333.33 280.296 1360 251.394C1386.67 222.493 1413.33 164.69 1440 135.788C1466.67 106.887 1493.33 106.887 1520 111.704C1546.67 116.52 1573.33 126.154 1600 155.056C1626.67 183.957 1653.33 232.126 1680 251.394C1706.67 270.662 1733.33 261.028 1760 232.126C1786.67 203.225 1813.33 155.056 1840 164.69C1866.67 174.323 1893.33 241.76 1906.67 275.479L1920 309.197V367H1906.67C1893.33 367 1866.67 367 1840 367C1813.33 367 1786.67 367 1760 367C1733.33 367 1706.67 367 1680 367C1653.33 367 1626.67 367 1600 367C1573.33 367 1546.67 367 1520 367C1493.33 367 1466.67 367 1440 367C1413.33 367 1386.67 367 1360 367C1333.33 367 1306.67 367 1280 367C1253.33 367 1226.67 367 1200 367C1173.33 367 1146.67 367 1120 367C1093.33 367 1066.67 367 1040 367C1013.33 367 986.667 367 960 367C933.333 367 906.667 367 880 367C853.333 367 826.667 367 800 367C773.333 367 746.667 367 720 367C693.333 367 666.667 367 640 367C613.333 367 586.667 367 560 367C533.333 367 506.667 367 480 367C453.333 367 426.667 367 400 367C373.333 367 346.667 367 320 367C293.333 367 266.667 367 240 367C213.333 367 186.667 367 160 367C133.333 367 106.667 367 80 367C53.3333 367 26.6667 367 13.3333 367H0V338.099Z" fill="#987134"/>
</g>
<path d="M542.816 307C537.752 307 533.633 311.12 533.633 316.184V328.429C533.633 328.991 533.175 329.449 532.612 329.449H527.51V326.388C527.51 321.324 523.39 317.204 518.327 317.204C513.263 317.204 509.143 321.324 509.143 326.388V359.041C509.143 359.603 508.685 360.061 508.122 360.061H495.878C495.315 360.061 494.857 359.603 494.857 359.041V320.265C494.857 315.201 490.737 311.082 485.673 311.082C480.61 311.082 476.49 315.201 476.49 320.265V341.694H471.388C470.825 341.694 470.367 341.236 470.367 340.673V332.51C470.367 327.446 466.248 323.327 461.184 323.327C456.12 323.327 452 327.446 452 332.51V340.673C452 351.364 460.697 360.061 471.388 360.061H476.516C476.996 369.251 483.903 376.767 492.816 378.187V390.177C491.143 390.755 489.524 391.49 487.984 392.379C483.871 394.755 480.401 398.162 477.949 402.232L477.51 402.961V407H526.49V402.961L526.051 402.232C523.599 398.162 520.129 394.755 516.016 392.379C514.476 391.49 512.857 390.755 511.184 390.177V378.187C520.425 376.715 527.51 368.69 527.51 359.041V347.817H532.612C543.303 347.817 552 339.119 552 328.429V316.184C552 311.12 547.88 307 542.816 307ZM517.224 400.878H486.777C490.806 396.976 496.198 394.755 502 394.755C507.802 394.755 513.194 396.976 517.224 400.878ZM545.878 328.429C545.878 335.743 539.927 341.694 532.612 341.694H521.388V359.041C521.388 366.355 515.437 372.306 508.122 372.306H505.061V388.803C504.047 388.692 503.026 388.633 502 388.633C500.974 388.633 499.953 388.692 498.939 388.803V372.306H495.878C488.563 372.306 482.612 366.355 482.612 359.041V353.939H471.388C464.073 353.939 458.122 347.988 458.122 340.673V332.51C458.122 330.822 459.496 329.449 461.184 329.449C462.872 329.449 464.245 330.822 464.245 332.51V340.673C464.245 344.612 467.449 347.816 471.388 347.816H482.612V320.265C482.612 318.577 483.986 317.204 485.673 317.204C487.361 317.204 488.735 318.577 488.735 320.265V359.041C488.735 362.979 491.939 366.184 495.878 366.184H508.122C512.061 366.184 515.265 362.979 515.265 359.041V326.388C515.265 324.7 516.639 323.327 518.327 323.327C520.014 323.327 521.388 324.7 521.388 326.388V335.571H532.612C536.551 335.571 539.755 332.367 539.755 328.429V316.184C539.755 314.496 541.128 313.122 542.816 313.122C544.504 313.122 545.878 314.496 545.878 316.184V328.429Z" fill="white"/>
<path d="M704.633 207C694.505 207 686.265 215.24 686.265 225.367V249.857C686.265 250.982 685.35 251.898 684.225 251.898H674.02V245.776C674.02 235.648 665.781 227.408 655.653 227.408C645.525 227.408 637.286 235.648 637.286 245.776V311.082C637.286 312.207 636.37 313.122 635.245 313.122H610.755C609.63 313.122 608.714 312.207 608.714 311.082V233.531C608.714 223.403 600.475 215.163 590.347 215.163C580.219 215.163 571.98 223.403 571.98 233.531V276.388H561.776C560.65 276.388 559.735 275.472 559.735 274.347V258.02C559.735 247.893 551.495 239.653 541.367 239.653C531.24 239.653 523 247.893 523 258.02V274.347C523 295.728 540.395 313.122 561.776 313.122H572.033C572.991 331.501 586.807 346.535 604.633 349.374V373.353C601.287 374.51 598.048 375.98 594.969 377.758C586.743 382.509 579.803 389.323 574.899 397.463L574.02 398.921V407H671.98V398.921L671.102 397.464C666.198 389.324 659.257 382.509 651.031 377.758C647.953 375.98 644.713 374.511 641.367 373.354V349.375C659.849 346.431 674.02 330.38 674.02 311.082V288.633H684.225C705.605 288.633 723 271.238 723 249.858V225.367C723 215.24 714.76 207 704.633 207ZM653.447 394.755H592.553C600.612 386.951 611.397 382.51 623 382.51C634.603 382.51 645.389 386.951 653.447 394.755ZM710.755 249.857C710.755 264.486 698.853 276.388 684.225 276.388H661.776V311.082C661.776 325.711 649.874 337.612 635.245 337.612H629.122V370.606C627.094 370.384 625.051 370.265 623 370.265C620.949 370.265 618.906 370.384 616.878 370.606V337.612H610.755C596.126 337.612 584.224 325.711 584.224 311.082V300.878H561.776C547.147 300.878 535.245 288.976 535.245 274.347V258.02C535.245 254.644 537.991 251.898 541.367 251.898C544.743 251.898 547.49 254.644 547.49 258.02V274.347C547.49 282.224 553.898 288.633 561.776 288.633H584.224V233.531C584.224 230.155 586.971 227.408 590.347 227.408C593.723 227.408 596.469 230.155 596.469 233.531V311.082C596.469 318.959 602.878 325.367 610.755 325.367H635.245C643.122 325.367 649.531 318.959 649.531 311.082V245.776C649.531 242.4 652.277 239.653 655.653 239.653C659.029 239.653 661.776 242.4 661.776 245.776V264.143H684.225C692.102 264.143 698.51 257.734 698.51 249.857V225.367C698.51 221.991 701.257 219.245 704.633 219.245C708.009 219.245 710.755 221.991 710.755 225.367V249.857Z" fill="white"/>
<g filter="url(#filter2_d_2002_243)">
<path d="M0 370.585L13.3333 355.915C26.6667 341.245 53.3333 311.905 80 300.169C106.667 288.433 133.333 294.301 160 291.367C186.667 288.433 213.333 276.697 240 273.763C266.667 270.829 293.333 276.697 320 285.499C346.667 294.301 373.333 306.037 400 323.641C426.667 341.245 453.333 364.717 480 379.386C506.667 394.056 533.333 399.924 560 396.99C586.667 394.056 613.333 382.32 640 376.452C666.667 370.585 693.333 370.585 720 367.651C746.667 364.717 773.333 358.849 800 358.849C826.667 358.849 853.333 364.717 880 350.047C906.667 335.377 933.333 300.169 960 288.433C986.667 276.697 1013.33 288.433 1040 288.433C1066.67 288.433 1093.33 276.697 1120 279.631C1146.67 282.565 1173.33 300.169 1200 306.037C1226.67 311.905 1253.33 306.037 1280 314.839C1306.67 323.641 1333.33 347.113 1360 367.651C1386.67 388.188 1413.33 405.792 1440 405.792C1466.67 405.792 1493.33 388.188 1520 367.651C1546.67 347.113 1573.33 323.641 1600 308.971C1626.67 294.301 1653.33 288.433 1680 303.103C1706.67 317.773 1733.33 352.981 1760 358.849C1786.67 364.717 1813.33 341.245 1840 335.377C1866.67 329.509 1893.33 341.245 1906.67 347.113L1920 352.981V441H1906.67C1893.33 441 1866.67 441 1840 441C1813.33 441 1786.67 441 1760 441C1733.33 441 1706.67 441 1680 441C1653.33 441 1626.67 441 1600 441C1573.33 441 1546.67 441 1520 441C1493.33 441 1466.67 441 1440 441C1413.33 441 1386.67 441 1360 441C1333.33 441 1306.67 441 1280 441C1253.33 441 1226.67 441 1200 441C1173.33 441 1146.67 441 1120 441C1093.33 441 1066.67 441 1040 441C1013.33 441 986.667 441 960 441C933.333 441 906.667 441 880 441C853.333 441 826.667 441 800 441C773.333 441 746.667 441 720 441C693.333 441 666.667 441 640 441C613.333 441 586.667 441 560 441C533.333 441 506.667 441 480 441C453.333 441 426.667 441 400 441C373.333 441 346.667 441 320 441C293.333 441 266.667 441 240 441C213.333 441 186.667 441 160 441C133.333 441 106.667 441 80 441C53.3333 441 26.6667 441 13.3333 441H0V370.585Z" fill="#AA854B"/>
</g>
<defs>
<filter id="filter0_d_2002_243" x="-50" y="27" width="2020" height="314" filterUnits="userSpaceOnUse" color-interpolation-filters="sRGB">
<feFlood flood-opacity="0" result="BackgroundImageFix"/>
<feColorMatrix in="SourceAlpha" type="matrix" values="0 0 0 0 0 0 0 0 0 0 0 0 0 0 0 0 0 0 127 0" result="hardAlpha"/>
<feOffset dy="-50"/>
<feGaussianBlur stdDeviation="25"/>
<feComposite in2="hardAlpha" operator="out"/>
<feColorMatrix type="matrix" values="0 0 0 0 0 0 0 0 0 0 0 0 0 0 0 0 0 0 0.25 0"/>
<feBlend mode="normal" in2="BackgroundImageFix" result="effect1_dropShadow_2002_243"/>
<feBlend mode="normal" in="SourceGraphic" in2="effect1_dropShadow_2002_243" result="shape"/>
</filter>
<filter id="filter1_d_2002_243" x="-50" y="0" width="2020" height="367" filterUnits="userSpaceOnUse" color-interpolation-filters="sRGB">
<feFlood flood-opacity="0" result="BackgroundImageFix"/>
<feColorMatrix in="SourceAlpha" type="matrix" values="0 0 0 0 0 0 0 0 0 0 0 0 0 0 0 0 0 0 127 0" result="hardAlpha"/>
<feOffset dy="-50"/>
<feGaussianBlur stdDeviation="25"/>
<feComposite in2="hardAlpha" operator="out"/>
<feColorMatrix type="matrix" values="0 0 0 0 0 0 0 0 0 0 0 0 0 0 0 0 0 0 0.25 0"/>
<feBlend mode="normal" in2="BackgroundImageFix" result="effect1_dropShadow_2002_243"/>
<feBlend mode="normal" in="SourceGraphic" in2="effect1_dropShadow_2002_243" result="shape"/>
</filter>
<filter id="filter2_d_2002_243" x="-50" y="173" width="2020" height="268" filterUnits="userSpaceOnUse" color-interpolation-filters="sRGB">
<feFlood flood-opacity="0" result="BackgroundImageFix"/>
<feColorMatrix in="SourceAlpha" type="matrix" values="0 0 0 0 0 0 0 0 0 0 0 0 0 0 0 0 0 0 127 0" result="hardAlpha"/>
<feOffset dy="-50"/>
<feGaussianBlur stdDeviation="25"/>
<feComposite in2="hardAlpha" operator="out"/>
<feColorMatrix type="matrix" values="0 0 0 0 0 0 0 0 0 0 0 0 0 0 0 0 0 0 0.25 0"/>
<feBlend mode="normal" in2="BackgroundImageFix" result="effect1_dropShadow_2002_243"/>
<feBlend mode="normal" in="SourceGraphic" in2="effect1_dropShadow_2002_243" result="shape"/>
</filter>
</defs>
</svg>

